<svg xmlns="http://www.w3.org/2000/svg" viewBox="0 0 980 230" role="img" aria-labelledby="title desc">
  <title id="title">EduCore Horizontal Logo Dark</title>
  <desc id="desc">EduCore logo for dark navigation/sidebar.</desc>
  <g transform="translate(48 25) scale(.47)">
    <path d="M240 27 A170 170 0 1 0 240 367 L240 291 A94 94 0 1 1 240 103 Z" fill="#FFFFFF"/>
    <path d="M245 135 A70 70 0 0 0 245 259 L245 135 Z" fill="#D79A21"/>
    <circle cx="246" cy="197" r="27" fill="#071E45"/>
    <rect x="303" y="86" width="43" height="43" rx="4" fill="#F2C35B"/>
    <rect x="358" y="133" width="34" height="34" rx="4" fill="#D79A21"/>
    <rect x="299" y="190" width="41" height="41" rx="4" fill="#D79A21"/>
    <rect x="367" y="221" width="28" height="28" rx="4" fill="#F2C35B"/>
  </g>
  <g transform="translate(265 62)">
    <text x="0" y="70" font-family="Inter, Arial, Helvetica, sans-serif" font-size="82" font-weight="800" letter-spacing="-3">
      <tspan fill="#FFFFFF">Edu</tspan><tspan fill="#F2C35B">Core</tspan>
    </text>
    <text x="4" y="124" font-family="Inter, Arial, Helvetica, sans-serif" font-size="28" font-weight="600" letter-spacing="12" fill="#BFC7D5">SCHOOL ERP</text>
  </g>
</svg>