<svg xmlns="http://www.w3.org/2000/svg" viewBox="0 0 1200 420" role="img" aria-labelledby="title desc">
  <title id="title">EduCore School ERP Logo</title>
  <desc id="desc">EduCore corporate wordmark with minimal C digital pixel icon.</desc>
  <rect width="1200" height="420" fill="#FFFFFF"/>
  <g transform="translate(126 45) scale(.68)">
    <path d="M240 27
             A170 170 0 1 0 240 367
             L240 291
             A94 94 0 1 1 240 103
             Z"
          fill="#071E45"/>
    <path d="M245 135
             A70 70 0 0 0 245 259
             L245 135 Z"
          fill="#D79A21"/>
    <circle cx="246" cy="197" r="27" fill="#FFFFFF"/>
    <rect x="303" y="86" width="43" height="43" rx="4" fill="#F2C35B"/>
    <rect x="358" y="133" width="34" height="34" rx="4" fill="#D79A21"/>
    <rect x="299" y="190" width="41" height="41" rx="4" fill="#D79A21"/>
    <rect x="367" y="221" width="28" height="28" rx="4" fill="#F2C35B"/>
  </g>

  <g transform="translate(425 120)">
    <text x="0" y="90"
          font-family="Inter, Arial, Helvetica, sans-serif"
          font-size="106"
          font-weight="800"
          letter-spacing="-4">
      <tspan fill="#071E45">Edu</tspan><tspan fill="#D79A21">Core</tspan>
    </text>
    <line x1="5" y1="145" x2="118" y2="145" stroke="#D9DEE8" stroke-width="4"/>
    <text x="145" y="164"
          font-family="Inter, Arial, Helvetica, sans-serif"
          font-size="44"
          font-weight="600"
          letter-spacing="20"
          fill="#7A7F87">SCHOOL ERP</text>
    <line x1="505" y1="145" x2="618" y2="145" stroke="#D9DEE8" stroke-width="4"/>
  </g>
</svg>